G04 Layer: TopPasteMaskLayer*
G04 EasyEDA Pro v2.2.31.6, 2024-09-23 19:55:52*
G04 Gerber Generator version 0.3*
G04 Scale: 100 percent, Rotated: No, Reflected: No*
G04 Dimensions in millimeters*
G04 Leading zeros omitted, absolute positions, 3 integers and 5 decimals*
%FSLAX35Y35*%
%MOMM*%
%ADD10R,0.8X0.9*%
%ADD11R,0.9X0.8*%
%ADD12R,2.07X2.05999*%
%ADD13R,1.9X2.49999*%
%ADD14O,1.22199X0.36401*%
G75*


G04 PolygonModel Start*
G36*
G01X151887Y-1378864D02*
G01X151887Y-1250866D01*
G01X156888Y-1245865D01*
G01X271889Y-1245865D01*
G01X276888Y-1250866D01*
G01X277391Y-1291869D01*
G01X232390Y-1291869D01*
G01X232390Y-1336868D01*
G01X276390Y-1336868D01*
G01X276888Y-1378864D01*
G01X271889Y-1383866D01*
G01X156888Y-1383866D01*
G01X151887Y-1378864D01*
G37*
G36*
G01X492882Y-1250864D02*
G01X492882Y-1378862D01*
G01X487881Y-1383863D01*
G01X372880Y-1383863D01*
G01X367881Y-1378862D01*
G01X367378Y-1337859D01*
G01X412379Y-1337859D01*
G01X412379Y-1292860D01*
G01X368379Y-1292860D01*
G01X367881Y-1250864D01*
G01X372880Y-1245862D01*
G01X487881Y-1245862D01*
G01X492882Y-1250864D01*
G37*
G36*
G01X178046Y-2128164D02*
G01X178046Y-2000166D01*
G01X183048Y-1995165D01*
G01X298049Y-1995165D01*
G01X303047Y-2000166D01*
G01X303550Y-2041169D01*
G01X258549Y-2041169D01*
G01X258549Y-2086168D01*
G01X302550Y-2086168D01*
G01X303047Y-2128164D01*
G01X298049Y-2133166D01*
G01X183048Y-2133166D01*
G01X178046Y-2128164D01*
G37*
G36*
G01X519041Y-2000164D02*
G01X519041Y-2128162D01*
G01X514040Y-2133163D01*
G01X399039Y-2133163D01*
G01X394040Y-2128162D01*
G01X393537Y-2087159D01*
G01X438539Y-2087159D01*
G01X438539Y-2042160D01*
G01X394538Y-2042160D01*
G01X394040Y-2000164D01*
G01X399039Y-1995162D01*
G01X514040Y-1995162D01*
G01X519041Y-2000164D01*
G37*
G36*
G01X1074285Y-1550533D02*
G01X1074285Y-1422535D01*
G01X1079287Y-1417533D01*
G01X1194288Y-1417533D01*
G01X1199286Y-1422535D01*
G01X1199789Y-1463538D01*
G01X1154788Y-1463538D01*
G01X1154788Y-1508536D01*
G01X1198789Y-1508536D01*
G01X1199286Y-1550533D01*
G01X1194288Y-1555534D01*
G01X1079287Y-1555534D01*
G01X1074285Y-1550533D01*
G37*
G36*
G01X1415280Y-1422532D02*
G01X1415280Y-1550530D01*
G01X1410279Y-1555532D01*
G01X1295278Y-1555532D01*
G01X1290279Y-1550530D01*
G01X1289776Y-1509527D01*
G01X1334778Y-1509527D01*
G01X1334778Y-1464528D01*
G01X1290777Y-1464528D01*
G01X1290279Y-1422532D01*
G01X1295278Y-1417531D01*
G01X1410279Y-1417531D01*
G01X1415280Y-1422532D01*
G37*
G36*
G01X1125845Y-2071233D02*
G01X1125845Y-1943235D01*
G01X1130846Y-1938233D01*
G01X1245847Y-1938233D01*
G01X1250846Y-1943235D01*
G01X1251349Y-1984238D01*
G01X1206348Y-1984238D01*
G01X1206348Y-2029236D01*
G01X1250348Y-2029236D01*
G01X1250846Y-2071233D01*
G01X1245847Y-2076234D01*
G01X1130846Y-2076234D01*
G01X1125845Y-2071233D01*
G37*
G36*
G01X1466840Y-1943232D02*
G01X1466840Y-2071230D01*
G01X1461839Y-2076232D01*
G01X1346838Y-2076232D01*
G01X1341839Y-2071230D01*
G01X1341336Y-2030227D01*
G01X1386337Y-2030227D01*
G01X1386337Y-1985228D01*
G01X1342337Y-1985228D01*
G01X1341839Y-1943232D01*
G01X1346838Y-1938231D01*
G01X1461839Y-1938231D01*
G01X1466840Y-1943232D01*
G37*
G36*
G01X1977504Y-2591933D02*
G01X1977504Y-2463935D01*
G01X1982506Y-2458933D01*
G01X2097507Y-2458933D01*
G01X2102505Y-2463935D01*
G01X2103008Y-2504938D01*
G01X2058007Y-2504938D01*
G01X2058007Y-2549936D01*
G01X2102007Y-2549936D01*
G01X2102505Y-2591933D01*
G01X2097507Y-2596934D01*
G01X1982506Y-2596934D01*
G01X1977504Y-2591933D01*
G37*
G36*
G01X2318499Y-2463932D02*
G01X2318499Y-2591930D01*
G01X2313498Y-2596932D01*
G01X2198497Y-2596932D01*
G01X2193498Y-2591930D01*
G01X2192995Y-2550927D01*
G01X2237997Y-2550927D01*
G01X2237997Y-2505928D01*
G01X2193996Y-2505928D01*
G01X2193498Y-2463932D01*
G01X2198497Y-2458931D01*
G01X2313498Y-2458931D01*
G01X2318499Y-2463932D01*
G37*
G36*
G01X2278698Y-1256800D02*
G01X2278698Y-1384798D01*
G01X2273696Y-1389799D01*
G01X2158695Y-1389799D01*
G01X2153696Y-1384798D01*
G01X2153194Y-1343795D01*
G01X2198195Y-1343795D01*
G01X2198195Y-1298796D01*
G01X2154194Y-1298796D01*
G01X2153696Y-1256800D01*
G01X2158695Y-1251798D01*
G01X2273696Y-1251798D01*
G01X2278698Y-1256800D01*
G37*
G36*
G01X1937703Y-1384800D02*
G01X1937703Y-1256802D01*
G01X1942704Y-1251801D01*
G01X2057705Y-1251801D01*
G01X2062704Y-1256802D01*
G01X2063206Y-1297805D01*
G01X2018205Y-1297805D01*
G01X2018205Y-1342804D01*
G01X2062206Y-1342804D01*
G01X2062704Y-1384800D01*
G01X2057705Y-1389802D01*
G01X1942704Y-1389802D01*
G01X1937703Y-1384800D01*
G37*
G36*
G01X2699898Y-1962699D02*
G01X2779898Y-1962699D01*
G01X2784899Y-1957697D01*
G01X2784899Y-1934901D01*
G01X2747899Y-1934901D01*
G01X2747899Y-1901901D01*
G01X2784899Y-1901901D01*
G01X2784899Y-1877698D01*
G01X2779898Y-1872699D01*
G01X2699898Y-1872699D01*
G01X2694899Y-1877698D01*
G01X2694899Y-1957697D01*
G01X2699898Y-1962699D01*
G37*
G36*
G01X2938902Y-1872701D02*
G01X2858902Y-1872701D01*
G01X2853901Y-1877703D01*
G01X2853901Y-1900499D01*
G01X2890901Y-1900499D01*
G01X2890901Y-1933499D01*
G01X2853901Y-1933499D01*
G01X2853901Y-1957702D01*
G01X2858902Y-1962701D01*
G01X2938902Y-1962701D01*
G01X2943901Y-1957702D01*
G01X2943901Y-1877703D01*
G01X2938902Y-1872701D01*
G37*
G36*
G01X462402Y-2533101D02*
G01X382402Y-2533101D01*
G01X377401Y-2538103D01*
G01X377401Y-2560899D01*
G01X414401Y-2560899D01*
G01X414401Y-2593899D01*
G01X377401Y-2593899D01*
G01X377401Y-2618102D01*
G01X382402Y-2623101D01*
G01X462402Y-2623101D01*
G01X467401Y-2618102D01*
G01X467401Y-2538103D01*
G01X462402Y-2533101D01*
G37*
G36*
G01X223398Y-2623099D02*
G01X303398Y-2623099D01*
G01X308399Y-2618097D01*
G01X308399Y-2595301D01*
G01X271399Y-2595301D01*
G01X271399Y-2562301D01*
G01X308399Y-2562301D01*
G01X308399Y-2538098D01*
G01X303398Y-2533099D01*
G01X223398Y-2533099D01*
G01X218399Y-2538098D01*
G01X218399Y-2618097D01*
G01X223398Y-2623099D01*
G37*
G36*
G01X2763398Y-1429299D02*
G01X2843398Y-1429299D01*
G01X2848399Y-1424297D01*
G01X2848399Y-1401501D01*
G01X2811399Y-1401501D01*
G01X2811399Y-1368501D01*
G01X2848399Y-1368501D01*
G01X2848399Y-1344298D01*
G01X2843398Y-1339299D01*
G01X2763398Y-1339299D01*
G01X2758399Y-1344298D01*
G01X2758399Y-1424297D01*
G01X2763398Y-1429299D01*
G37*
G36*
G01X3002402Y-1339301D02*
G01X2922402Y-1339301D01*
G01X2917401Y-1344303D01*
G01X2917401Y-1367099D01*
G01X2954401Y-1367099D01*
G01X2954401Y-1400099D01*
G01X2917401Y-1400099D01*
G01X2917401Y-1424302D01*
G01X2922402Y-1429301D01*
G01X3002402Y-1429301D01*
G01X3007401Y-1424302D01*
G01X3007401Y-1344303D01*
G01X3002402Y-1339301D01*
G37*
G36*
G01X3385698Y-2534199D02*
G01X3465698Y-2534199D01*
G01X3470699Y-2529197D01*
G01X3470699Y-2506401D01*
G01X3433699Y-2506401D01*
G01X3433699Y-2473401D01*
G01X3470699Y-2473401D01*
G01X3470699Y-2449198D01*
G01X3465698Y-2444199D01*
G01X3385698Y-2444199D01*
G01X3380699Y-2449198D01*
G01X3380699Y-2529197D01*
G01X3385698Y-2534199D01*
G37*
G36*
G01X3624702Y-2444201D02*
G01X3544702Y-2444201D01*
G01X3539701Y-2449203D01*
G01X3539701Y-2471999D01*
G01X3576701Y-2471999D01*
G01X3576701Y-2504999D01*
G01X3539701Y-2504999D01*
G01X3539701Y-2529202D01*
G01X3544702Y-2534201D01*
G01X3624702Y-2534201D01*
G01X3629701Y-2529202D01*
G01X3629701Y-2449203D01*
G01X3624702Y-2444201D01*
G37*
G36*
G01X5195932Y-2562202D02*
G01X5115932Y-2562202D01*
G01X5110931Y-2567203D01*
G01X5110931Y-2590000D01*
G01X5147931Y-2590000D01*
G01X5147931Y-2623000D01*
G01X5110931Y-2623000D01*
G01X5110931Y-2647203D01*
G01X5115932Y-2652202D01*
G01X5195932Y-2652202D01*
G01X5200931Y-2647203D01*
G01X5200931Y-2567203D01*
G01X5195932Y-2562202D01*
G37*
G36*
G01X4956928Y-2652199D02*
G01X5036928Y-2652199D01*
G01X5041929Y-2647198D01*
G01X5041929Y-2624402D01*
G01X5004929Y-2624402D01*
G01X5004929Y-2591402D01*
G01X5041929Y-2591402D01*
G01X5041929Y-2567198D01*
G01X5036928Y-2562200D01*
G01X4956928Y-2562200D01*
G01X4951929Y-2567198D01*
G01X4951929Y-2647198D01*
G01X4956928Y-2652199D01*
G37*

G04 Pad Start*
G54D10*
G01X1232177Y-2597564D03*
G01X1092172Y-2597564D03*
G01X3575202Y-711200D03*
G01X3435198Y-711200D03*
G54D11*
G01X5308096Y-665552D03*
G01X5308096Y-805557D03*
G54D12*
G01X569100Y-711200D03*
G01X954900Y-711200D03*
G54D13*
G01X1900081Y-759998D03*
G01X2310088Y-759998D03*
G54D14*
G01X4426407Y-1761211D03*
G01X4426407Y-1696212D03*
G01X4426407Y-1631213D03*
G01X4426407Y-1566189D03*
G01X4184193Y-1761211D03*
G01X4184193Y-1696212D03*
G01X4184193Y-1631213D03*
G01X4184193Y-1566189D03*
G04 Pad End*

M02*

